SplineFontDB: 3.0
FontName: FruityGirl
FullName: FruityGirl
FamilyName: FruityGirl
Weight: Medium
Copyright: Copyright 2013, Google, Inc.
UComments: "2013-3-8: Created." 
Version: 001.000
ItalicAngle: 0
UnderlinePosition: -1179
UnderlineWidth: 131
Ascent: 1536
Descent: 512
LayerCount: 2
Layer: 0 0 "Back"  1
Layer: 1 0 "Fore"  0
XUID: [1021 612 2057811128 4032223]
FSType: 0
OS2Version: 0
OS2_WeightWidthSlopeOnly: 0
OS2_UseTypoMetrics: 1
CreationTime: 1362735710
ModificationTime: 1363106945
PfmFamily: 81
TTFWeight: 500
TTFWidth: 5
LineGap: 256
VLineGap: 184
OS2TypoAscent: 1536
OS2TypoAOffset: 0
OS2TypoDescent: -512
OS2TypoDOffset: 0
OS2TypoLinegap: 184
OS2WinAscent: 1536
OS2WinAOffset: 0
OS2WinDescent: 512
OS2WinDOffset: 0
HheadAscent: 1536
HheadAOffset: 0
HheadDescent: -512
HheadDOffset: 0
OS2Vendor: 'GOOG'
MarkAttachClasses: 1
DEI: 91125

StartChar: A
Encoding: 65 65 0
Width: 2048
VWidth: 0
Flags: HW
LayerCount: 2
Fore
SplineSet
1491 273 m 25
 1491 1322 l 25
 557 1322 l 25
 623 298 l 25
 1491 290 l 25
 1491 273 l 25
EndSplineSet
EndChar

StartChar: B
Encoding: 66 66 1
Width: 2048
VWidth: 0
Flags: HW
LayerCount: 2
Fore
SplineSet
1491 273 m 25
 1491 1322 l 25
 557 1322 l 25
 623 298 l 25
 1491 290 l 25
 1491 273 l 25
EndSplineSet
EndChar

StartChar: C
Encoding: 67 67 2
Width: 2048
VWidth: 0
Flags: HW
LayerCount: 2
Fore
SplineSet
1491 273 m 25
 1491 1322 l 25
 557 1322 l 25
 623 298 l 25
 1491 290 l 25
 1491 273 l 25
EndSplineSet
EndChar

StartChar: D
Encoding: 68 68 3
Width: 2048
VWidth: 0
Flags: HW
LayerCount: 2
Fore
SplineSet
1491 273 m 25
 1491 1322 l 25
 557 1322 l 25
 623 298 l 25
 1491 290 l 25
 1491 273 l 25
EndSplineSet
EndChar

StartChar: E
Encoding: 69 69 4
Width: 2048
VWidth: 0
Flags: HW
LayerCount: 2
Fore
SplineSet
1491 273 m 25
 1491 1322 l 25
 557 1322 l 25
 623 298 l 25
 1491 290 l 25
 1491 273 l 25
EndSplineSet
EndChar

StartChar: F
Encoding: 70 70 5
Width: 2048
VWidth: 0
Flags: HW
LayerCount: 2
Fore
SplineSet
1491 273 m 25
 1491 1322 l 25
 557 1322 l 25
 623 298 l 25
 1491 290 l 25
 1491 273 l 25
EndSplineSet
EndChar

StartChar: G
Encoding: 71 71 6
Width: 2048
VWidth: 0
Flags: HW
LayerCount: 2
Fore
SplineSet
1491 273 m 25
 1491 1322 l 25
 557 1322 l 25
 623 298 l 25
 1491 290 l 25
 1491 273 l 25
EndSplineSet
EndChar

StartChar: H
Encoding: 72 72 7
Width: 2048
VWidth: 0
Flags: HW
LayerCount: 2
Fore
SplineSet
1491 273 m 25
 1491 1322 l 25
 557 1322 l 25
 623 298 l 25
 1491 290 l 25
 1491 273 l 25
EndSplineSet
EndChar

StartChar: I
Encoding: 73 73 8
Width: 2048
VWidth: 0
Flags: HW
LayerCount: 2
Fore
SplineSet
1491 273 m 25
 1491 1322 l 25
 557 1322 l 25
 623 298 l 25
 1491 290 l 25
 1491 273 l 25
EndSplineSet
EndChar

StartChar: J
Encoding: 74 74 9
Width: 2048
VWidth: 0
Flags: HW
LayerCount: 2
Fore
SplineSet
1491 273 m 25
 1491 1322 l 25
 557 1322 l 25
 623 298 l 25
 1491 290 l 25
 1491 273 l 25
EndSplineSet
EndChar

StartChar: K
Encoding: 75 75 10
Width: 2048
VWidth: 0
Flags: HW
LayerCount: 2
Fore
SplineSet
1491 273 m 25
 1491 1322 l 25
 557 1322 l 25
 623 298 l 25
 1491 290 l 25
 1491 273 l 25
EndSplineSet
EndChar

StartChar: L
Encoding: 76 76 11
Width: 2048
VWidth: 0
Flags: HW
LayerCount: 2
Fore
SplineSet
1491 273 m 25
 1491 1322 l 25
 557 1322 l 25
 623 298 l 25
 1491 290 l 25
 1491 273 l 25
EndSplineSet
EndChar

StartChar: M
Encoding: 77 77 12
Width: 2048
VWidth: 0
Flags: HW
LayerCount: 2
Fore
SplineSet
1491 273 m 25
 1491 1322 l 25
 557 1322 l 25
 623 298 l 25
 1491 290 l 25
 1491 273 l 25
EndSplineSet
EndChar

StartChar: N
Encoding: 78 78 13
Width: 2048
VWidth: 0
Flags: HW
LayerCount: 2
Fore
SplineSet
1491 273 m 25
 1491 1322 l 25
 557 1322 l 25
 623 298 l 25
 1491 290 l 25
 1491 273 l 25
EndSplineSet
EndChar

StartChar: O
Encoding: 79 79 14
Width: 2048
VWidth: 0
Flags: HW
LayerCount: 2
Fore
SplineSet
1491 273 m 25
 1491 1322 l 25
 557 1322 l 25
 623 298 l 25
 1491 290 l 25
 1491 273 l 25
EndSplineSet
EndChar

StartChar: P
Encoding: 80 80 15
Width: 2048
VWidth: 0
Flags: HW
LayerCount: 2
Fore
SplineSet
1491 273 m 25
 1491 1322 l 25
 557 1322 l 25
 623 298 l 25
 1491 290 l 25
 1491 273 l 25
EndSplineSet
EndChar

StartChar: Q
Encoding: 81 81 16
Width: 2048
VWidth: 0
Flags: HW
LayerCount: 2
Fore
SplineSet
1491 273 m 25
 1491 1322 l 25
 557 1322 l 25
 623 298 l 25
 1491 290 l 25
 1491 273 l 25
EndSplineSet
EndChar

StartChar: R
Encoding: 82 82 17
Width: 2048
VWidth: 0
Flags: HW
LayerCount: 2
Fore
SplineSet
1491 273 m 25
 1491 1322 l 25
 557 1322 l 25
 623 298 l 25
 1491 290 l 25
 1491 273 l 25
EndSplineSet
EndChar

StartChar: S
Encoding: 83 83 18
Width: 2048
VWidth: 0
Flags: HW
LayerCount: 2
Fore
SplineSet
1491 273 m 25
 1491 1322 l 25
 557 1322 l 25
 623 298 l 25
 1491 290 l 25
 1491 273 l 25
EndSplineSet
EndChar

StartChar: T
Encoding: 84 84 19
Width: 2048
VWidth: 0
Flags: HW
LayerCount: 2
Fore
SplineSet
1491 273 m 25
 1491 1322 l 25
 557 1322 l 25
 623 298 l 25
 1491 290 l 25
 1491 273 l 25
EndSplineSet
EndChar

StartChar: U
Encoding: 85 85 20
Width: 2048
VWidth: 0
Flags: HW
LayerCount: 2
Fore
SplineSet
1491 273 m 25
 1491 1322 l 25
 557 1322 l 25
 623 298 l 25
 1491 290 l 25
 1491 273 l 25
EndSplineSet
EndChar

StartChar: V
Encoding: 86 86 21
Width: 2048
VWidth: 0
Flags: HW
LayerCount: 2
Fore
SplineSet
1491 273 m 25
 1491 1322 l 25
 557 1322 l 25
 623 298 l 25
 1491 290 l 25
 1491 273 l 25
EndSplineSet
EndChar

StartChar: W
Encoding: 87 87 22
Width: 2048
VWidth: 0
Flags: HW
LayerCount: 2
Fore
SplineSet
1491 273 m 25
 1491 1322 l 25
 557 1322 l 25
 623 298 l 25
 1491 290 l 25
 1491 273 l 25
EndSplineSet
EndChar

StartChar: X
Encoding: 88 88 23
Width: 2048
VWidth: 0
Flags: HW
LayerCount: 2
Fore
SplineSet
1491 273 m 25
 1491 1322 l 25
 557 1322 l 25
 623 298 l 25
 1491 290 l 25
 1491 273 l 25
EndSplineSet
EndChar

StartChar: Y
Encoding: 89 89 24
Width: 2048
VWidth: 0
Flags: HW
LayerCount: 2
Fore
SplineSet
1491 273 m 25
 1491 1322 l 25
 557 1322 l 25
 623 298 l 25
 1491 290 l 25
 1491 273 l 25
EndSplineSet
EndChar

StartChar: Z
Encoding: 90 90 25
Width: 2048
VWidth: 0
Flags: HW
LayerCount: 2
Fore
SplineSet
1491 273 m 25
 1491 1322 l 25
 557 1322 l 25
 623 298 l 25
 1491 290 l 25
 1491 273 l 25
EndSplineSet
EndChar

StartChar: period
Encoding: 46 46 26
Width: 2048
VWidth: 0
Flags: HW
LayerCount: 2
Fore
SplineSet
1491 273 m 25
 1491 1322 l 25
 557 1322 l 25
 623 298 l 25
 1491 290 l 25
 1491 273 l 25
EndSplineSet
EndChar

StartChar: comma
Encoding: 44 44 27
Width: 2048
VWidth: 0
Flags: HW
LayerCount: 2
Fore
SplineSet
1491 273 m 25
 1491 1322 l 25
 557 1322 l 25
 623 298 l 25
 1491 290 l 25
 1491 273 l 25
EndSplineSet
EndChar

